<svg xmlns="http://www.w3.org/2000/svg" width="256" height="256" viewBox="0 0 256 256" role="img"><title>weapp-stylex 双轨环抱 — 紧凑头像</title><defs><mask id="clear"><rect width="256" height="256" fill="white"/><circle cx="128" cy="128" r="71" fill="black"/></mask></defs><g mask="url(#clear)"><path d="M11.585 122.509L11.730 120.774L11.992 119.014L12.373 117.232L12.874 115.434L13.495 113.623L14.235 111.803L15.095 109.977L16.073 108.151L17.169 106.327L18.380 104.509L19.704 102.700L21.141 100.902L22.687 99.119L24.341 97.352L26.101 95.604L27.963 93.877L29.926 92.172L31.987 90.492L34.288 89.083L36.670 87.711L39.131 86.377L41.670 85.081L44.284 83.824L46.971 82.607L49.729 81.430L52.555 80.294L55.448 79.200L58.404 78.149L61.422 77.141L64.498 76.176L67.631 75.257L70.817 74.383L74.053 73.555L77.338 72.774L80.667 72.040L84.039 71.354L87.450 70.716L90.898 70.127L94.379 69.588L97.890 69.098L101.429 68.658L104.992 68.269L108.576 67.931L112.178 67.644L115.794 67.409L119.423 67.225L123.060 67.092L126.702 67.012L130.347 66.984L133.990 67.008L137.629 67.084L141.261 67.212L144.883 67.392L148.490 67.624L152.081 67.907L155.652 68.243L159.200 68.629L162.721 69.067L166.214 69.555L169.674 70.094L173.099 70.683L176.487 71.322L179.833 72.010L183.136 72.747L186.392 73.532L189.598 74.365L192.753 75.246L195.853 76.174L198.896 77.148L201.879 78.168L204.800 79.233L207.657 80.343L210.446 81.498L213.167 82.696L215.816 83.937L218.392 85.222L220.892 86.549L223.314 87.918L225.657 89.328L227.918 90.780L230.095 92.274L232.187 93.809L234.191 95.384L236.105 97.001L237.927 98.658L239.655 100.357L241.286 102.097L242.818 103.877L244.247 105.699L245.571 107.561L246.786 109.462L247.889 111.403L248.875 113.381L249.740 115.395L250.482 117.440L251.095 119.515L251.576 121.614L251.922 123.731L252.130 125.862L252.200 128.000L252.130 130.138L251.922 132.269L251.576 134.386L251.095 136.485L250.482 138.560L249.740 140.605L248.875 142.619L247.889 144.597L246.786 146.538L245.571 148.439L244.247 150.301L242.818 152.123L241.286 153.903L239.655 155.643L237.927 157.342L236.105 158.999L234.191 160.616L232.187 162.191L230.095 163.726L227.918 165.220L225.657 166.672L223.314 168.082L220.892 169.451L218.392 170.778L215.816 172.063L213.167 173.304L210.446 174.502L207.657 175.657L204.800 176.767L201.879 177.832L198.896 178.852L195.853 179.826L192.753 180.754L189.598 181.635L186.392 182.468L183.136 183.253L179.833 183.990L176.487 184.678L173.099 185.317L169.674 185.906L166.214 186.445L162.721 186.933L159.200 187.371L155.652 187.757L152.081 188.093L148.490 188.376L144.883 188.608L141.261 188.788L137.629 188.916L133.990 188.992L130.347 189.016L126.702 188.988L123.060 188.908L119.423 188.775L115.794 188.591L112.178 188.356L108.576 188.069L104.992 187.731L101.429 187.342L97.890 186.902L94.379 186.412L90.898 185.873L87.450 185.284L84.039 184.646L80.667 183.960L77.338 183.226L74.053 182.445L70.817 181.617L67.631 180.743L64.498 179.824L61.422 178.859L58.404 177.851L55.448 176.800L52.555 175.706L49.729 174.570L46.971 173.393L44.284 172.176L41.670 170.919L39.131 169.623L36.670 168.289L34.288 166.917L31.987 165.508L29.926 163.828L27.963 162.123L26.101 160.396L24.341 158.648L22.687 156.881L21.141 155.098L19.704 153.300L18.380 151.491L17.169 149.673L16.073 147.849L15.095 146.023L14.235 144.197L13.495 142.377L12.874 140.566L12.373 138.768L11.992 136.986L11.730 135.226L11.585 133.491L11.585 133.491L12.257 135.079L13.027 136.629L13.893 138.142L14.851 139.618L15.901 141.059L17.040 142.465L18.268 143.839L19.583 145.180L20.985 146.489L22.473 147.766L24.046 149.013L25.704 150.228L27.445 151.412L29.270 152.564L31.176 153.684L33.163 154.770L35.229 155.823L37.374 156.842L39.452 158.071L41.617 159.273L43.868 160.446L46.201 161.589L48.614 162.700L51.105 163.778L53.671 164.821L56.310 165.828L59.019 166.798L61.795 167.729L64.636 168.621L67.538 169.473L70.498 170.282L73.514 171.050L76.583 171.773L79.701 172.453L82.866 173.088L86.074 173.677L89.322 174.219L92.607 174.715L95.926 175.164L99.275 175.564L102.651 175.916L106.051 176.220L109.471 176.475L112.909 176.680L116.360 176.836L119.822 176.942L123.291 176.999L126.763 177.006L130.236 176.963L133.705 176.870L137.168 176.728L140.620 176.537L144.060 176.296L147.482 176.007L150.884 175.669L154.263 175.283L157.615 174.849L160.937 174.368L164.226 173.841L167.477 173.267L170.689 172.648L173.858 171.985L176.980 171.278L180.053 170.528L183.073 169.735L186.038 168.902L188.943 168.029L191.788 167.117L194.567 166.167L197.279 165.180L199.921 164.159L202.490 163.103L204.983 162.016L207.398 160.898L209.731 159.750L211.982 158.576L214.147 157.376L216.223 156.153L218.210 154.908L220.105 153.644L221.905 152.363L223.610 151.068L225.218 149.761L226.728 148.445L228.138 147.122L229.448 145.795L230.658 144.467L231.768 143.141L232.777 141.819L233.688 140.505L234.501 139.200L235.218 137.906L235.842 136.625L236.374 135.358L236.818 134.105L237.176 132.865L237.451 131.637L237.645 130.419L237.761 129.208L237.800 128.000L237.761 126.792L237.645 125.581L237.451 124.363L237.176 123.135L236.818 121.895L236.374 120.642L235.842 119.375L235.218 118.094L234.501 116.800L233.688 115.495L232.777 114.181L231.768 112.859L230.658 111.533L229.448 110.205L228.138 108.878L226.728 107.555L225.218 106.239L223.610 104.932L221.905 103.637L220.105 102.356L218.210 101.092L216.223 99.847L214.147 98.624L211.982 97.424L209.731 96.250L207.398 95.102L204.983 93.984L202.490 92.897L199.921 91.841L197.279 90.820L194.567 89.833L191.788 88.883L188.943 87.971L186.038 87.098L183.073 86.265L180.053 85.472L176.980 84.722L173.858 84.015L170.689 83.352L167.477 82.733L164.226 82.159L160.937 81.632L157.615 81.151L154.263 80.717L150.884 80.331L147.482 79.993L144.060 79.704L140.620 79.463L137.168 79.272L133.705 79.130L130.236 79.037L126.763 78.994L123.291 79.001L119.822 79.058L116.360 79.164L112.909 79.320L109.471 79.525L106.051 79.780L102.651 80.084L99.275 80.436L95.926 80.836L92.607 81.285L89.322 81.781L86.074 82.323L82.866 82.912L79.701 83.547L76.583 84.227L73.514 84.950L70.498 85.718L67.538 86.527L64.636 87.379L61.795 88.271L59.019 89.202L56.310 90.172L53.671 91.179L51.105 92.222L48.614 93.300L46.201 94.411L43.868 95.554L41.617 96.727L39.452 97.929L37.374 99.158L35.229 100.177L33.163 101.230L31.176 102.316L29.270 103.436L27.445 104.588L25.704 105.772L24.046 106.987L22.473 108.234L20.985 109.511L19.583 110.820L18.268 112.161L17.040 113.535L15.901 114.941L14.851 116.382L13.893 117.858L13.027 119.371L12.257 120.921L11.585 122.509Z" transform="rotate(46 128 128)" fill="#D573DE"/><path d="M11.585 122.509L11.730 120.774L11.992 119.014L12.373 117.232L12.874 115.434L13.495 113.623L14.235 111.803L15.095 109.977L16.073 108.151L17.169 106.327L18.380 104.509L19.704 102.700L21.141 100.902L22.687 99.119L24.341 97.352L26.101 95.604L27.963 93.877L29.926 92.172L31.987 90.492L34.288 89.083L36.670 87.711L39.131 86.377L41.670 85.081L44.284 83.824L46.971 82.607L49.729 81.430L52.555 80.294L55.448 79.200L58.404 78.149L61.422 77.141L64.498 76.176L67.631 75.257L70.817 74.383L74.053 73.555L77.338 72.774L80.667 72.040L84.039 71.354L87.450 70.716L90.898 70.127L94.379 69.588L97.890 69.098L101.429 68.658L104.992 68.269L108.576 67.931L112.178 67.644L115.794 67.409L119.423 67.225L123.060 67.092L126.702 67.012L130.347 66.984L133.990 67.008L137.629 67.084L141.261 67.212L144.883 67.392L148.490 67.624L152.081 67.907L155.652 68.243L159.200 68.629L162.721 69.067L166.214 69.555L169.674 70.094L173.099 70.683L176.487 71.322L179.833 72.010L183.136 72.747L186.392 73.532L189.598 74.365L192.753 75.246L195.853 76.174L198.896 77.148L201.879 78.168L204.800 79.233L207.657 80.343L210.446 81.498L213.167 82.696L215.816 83.937L218.392 85.222L220.892 86.549L223.314 87.918L225.657 89.328L227.918 90.780L230.095 92.274L232.187 93.809L234.191 95.384L236.105 97.001L237.927 98.658L239.655 100.357L241.286 102.097L242.818 103.877L244.247 105.699L245.571 107.561L246.786 109.462L247.889 111.403L248.875 113.381L249.740 115.395L250.482 117.440L251.095 119.515L251.576 121.614L251.922 123.731L252.130 125.862L252.200 128.000L252.130 130.138L251.922 132.269L251.576 134.386L251.095 136.485L250.482 138.560L249.740 140.605L248.875 142.619L247.889 144.597L246.786 146.538L245.571 148.439L244.247 150.301L242.818 152.123L241.286 153.903L239.655 155.643L237.927 157.342L236.105 158.999L234.191 160.616L232.187 162.191L230.095 163.726L227.918 165.220L225.657 166.672L223.314 168.082L220.892 169.451L218.392 170.778L215.816 172.063L213.167 173.304L210.446 174.502L207.657 175.657L204.800 176.767L201.879 177.832L198.896 178.852L195.853 179.826L192.753 180.754L189.598 181.635L186.392 182.468L183.136 183.253L179.833 183.990L176.487 184.678L173.099 185.317L169.674 185.906L166.214 186.445L162.721 186.933L159.200 187.371L155.652 187.757L152.081 188.093L148.490 188.376L144.883 188.608L141.261 188.788L137.629 188.916L133.990 188.992L130.347 189.016L126.702 188.988L123.060 188.908L119.423 188.775L115.794 188.591L112.178 188.356L108.576 188.069L104.992 187.731L101.429 187.342L97.890 186.902L94.379 186.412L90.898 185.873L87.450 185.284L84.039 184.646L80.667 183.960L77.338 183.226L74.053 182.445L70.817 181.617L67.631 180.743L64.498 179.824L61.422 178.859L58.404 177.851L55.448 176.800L52.555 175.706L49.729 174.570L46.971 173.393L44.284 172.176L41.670 170.919L39.131 169.623L36.670 168.289L34.288 166.917L31.987 165.508L29.926 163.828L27.963 162.123L26.101 160.396L24.341 158.648L22.687 156.881L21.141 155.098L19.704 153.300L18.380 151.491L17.169 149.673L16.073 147.849L15.095 146.023L14.235 144.197L13.495 142.377L12.874 140.566L12.373 138.768L11.992 136.986L11.730 135.226L11.585 133.491L11.585 133.491L12.257 135.079L13.027 136.629L13.893 138.142L14.851 139.618L15.901 141.059L17.040 142.465L18.268 143.839L19.583 145.180L20.985 146.489L22.473 147.766L24.046 149.013L25.704 150.228L27.445 151.412L29.270 152.564L31.176 153.684L33.163 154.770L35.229 155.823L37.374 156.842L39.452 158.071L41.617 159.273L43.868 160.446L46.201 161.589L48.614 162.700L51.105 163.778L53.671 164.821L56.310 165.828L59.019 166.798L61.795 167.729L64.636 168.621L67.538 169.473L70.498 170.282L73.514 171.050L76.583 171.773L79.701 172.453L82.866 173.088L86.074 173.677L89.322 174.219L92.607 174.715L95.926 175.164L99.275 175.564L102.651 175.916L106.051 176.220L109.471 176.475L112.909 176.680L116.360 176.836L119.822 176.942L123.291 176.999L126.763 177.006L130.236 176.963L133.705 176.870L137.168 176.728L140.620 176.537L144.060 176.296L147.482 176.007L150.884 175.669L154.263 175.283L157.615 174.849L160.937 174.368L164.226 173.841L167.477 173.267L170.689 172.648L173.858 171.985L176.980 171.278L180.053 170.528L183.073 169.735L186.038 168.902L188.943 168.029L191.788 167.117L194.567 166.167L197.279 165.180L199.921 164.159L202.490 163.103L204.983 162.016L207.398 160.898L209.731 159.750L211.982 158.576L214.147 157.376L216.223 156.153L218.210 154.908L220.105 153.644L221.905 152.363L223.610 151.068L225.218 149.761L226.728 148.445L228.138 147.122L229.448 145.795L230.658 144.467L231.768 143.141L232.777 141.819L233.688 140.505L234.501 139.200L235.218 137.906L235.842 136.625L236.374 135.358L236.818 134.105L237.176 132.865L237.451 131.637L237.645 130.419L237.761 129.208L237.800 128.000L237.761 126.792L237.645 125.581L237.451 124.363L237.176 123.135L236.818 121.895L236.374 120.642L235.842 119.375L235.218 118.094L234.501 116.800L233.688 115.495L232.777 114.181L231.768 112.859L230.658 111.533L229.448 110.205L228.138 108.878L226.728 107.555L225.218 106.239L223.610 104.932L221.905 103.637L220.105 102.356L218.210 101.092L216.223 99.847L214.147 98.624L211.982 97.424L209.731 96.250L207.398 95.102L204.983 93.984L202.490 92.897L199.921 91.841L197.279 90.820L194.567 89.833L191.788 88.883L188.943 87.971L186.038 87.098L183.073 86.265L180.053 85.472L176.980 84.722L173.858 84.015L170.689 83.352L167.477 82.733L164.226 82.159L160.937 81.632L157.615 81.151L154.263 80.717L150.884 80.331L147.482 79.993L144.060 79.704L140.620 79.463L137.168 79.272L133.705 79.130L130.236 79.037L126.763 78.994L123.291 79.001L119.822 79.058L116.360 79.164L112.909 79.320L109.471 79.525L106.051 79.780L102.651 80.084L99.275 80.436L95.926 80.836L92.607 81.285L89.322 81.781L86.074 82.323L82.866 82.912L79.701 83.547L76.583 84.227L73.514 84.950L70.498 85.718L67.538 86.527L64.636 87.379L61.795 88.271L59.019 89.202L56.310 90.172L53.671 91.179L51.105 92.222L48.614 93.300L46.201 94.411L43.868 95.554L41.617 96.727L39.452 97.929L37.374 99.158L35.229 100.177L33.163 101.230L31.176 102.316L29.270 103.436L27.445 104.588L25.704 105.772L24.046 106.987L22.473 108.234L20.985 109.511L19.583 110.820L18.268 112.161L17.040 113.535L15.901 114.941L14.851 116.382L13.893 117.858L13.027 119.371L12.257 120.921L11.585 122.509Z" transform="translate(0 256) scale(1 -1) rotate(46 128 128)" fill="#5BD3F3"/></g><circle cx="128" cy="128" r="69" fill="#07C160"/><path transform="translate(59 59) scale(1.38)" d="M79.49 54.235C77.28 50.605 73.6 47.825 69.2 46.545L68.865 46.445C68.1926 46.2468 67.496 46.1425 66.795 46.135C63.745 46.135 62.025 48.195 62.945 50.74C63.625 52.6 65.4 54.17 67.57 54.895C70.93 56.12 73.28 58.915 73.28 62.17C73.28 66.555 69.015 70.105 63.755 70.105C58.495 70.105 54.235 66.555 54.235 62.17V37.83C54.235 31.98 50.84 26.845 45.765 23.94C42.8647 22.2877 39.5829 21.4225 36.245 21.43C26.325 21.43 18.255 28.785 18.255 37.83C18.255 40.71 19.075 43.415 20.51 45.765C22.73 49.415 26.43 52.2 30.86 53.47L30.87 53.475C31.62 53.71 32.395 53.835 33.155 53.835C36.22 53.835 37.955 51.765 37.025 49.215C36.395 47.48 34.695 45.99 32.72 45.2C32.4854 45.1213 32.2536 45.0346 32.025 44.94C28.885 43.64 26.72 40.95 26.72 37.83C26.72 33.445 30.985 29.895 36.245 29.895C41.505 29.895 45.765 33.445 45.765 37.83V62.17C45.765 68.02 49.16 73.155 54.235 76.06C57.1353 77.7123 60.4171 78.5775 63.755 78.57C73.675 78.57 81.745 71.215 81.745 62.17C81.745 59.29 80.925 56.585 79.49 54.235Z" fill="#fff"/></svg>