<svg width="100" height="100" viewBox="0 0 100 100" fill="none" xmlns="http://www.w3.org/2000/svg">
<path d="M79.49 54.235C77.28 50.605 73.6 47.825 69.2 46.545L68.865 46.445C68.1926 46.2468 67.496 46.1425 66.795 46.135C63.745 46.135 62.025 48.195 62.945 50.74C63.625 52.6 65.4 54.17 67.57 54.895C70.93 56.12 73.28 58.915 73.28 62.17C73.28 66.555 69.015 70.105 63.755 70.105C58.495 70.105 54.235 66.555 54.235 62.17V37.83C54.235 31.98 50.84 26.845 45.765 23.94C42.8647 22.2877 39.5829 21.4225 36.245 21.43C26.325 21.43 18.255 28.785 18.255 37.83C18.255 40.71 19.075 43.415 20.51 45.765C22.73 49.415 26.43 52.2 30.86 53.47L30.87 53.475C31.62 53.71 32.395 53.835 33.155 53.835C36.22 53.835 37.955 51.765 37.025 49.215C36.395 47.48 34.695 45.99 32.72 45.2C32.4854 45.1213 32.2536 45.0346 32.025 44.94C28.885 43.64 26.72 40.95 26.72 37.83C26.72 33.445 30.985 29.895 36.245 29.895C41.505 29.895 45.765 33.445 45.765 37.83V62.17C45.765 68.02 49.16 73.155 54.235 76.06C57.1353 77.7123 60.4171 78.5775 63.755 78.57C73.675 78.57 81.745 71.215 81.745 62.17C81.745 59.29 80.925 56.585 79.49 54.235ZM50 100C22.385 100 0 77.615 0 50C0 22.385 22.385 0 50 0C77.615 0 100 22.385 100 50C100 77.615 77.615 100 50 100Z" fill="#07C160"/>
</svg>
